<?xml version="1.0" encoding="UTF-8" standalone="no"?>
<!-- Created with Inkscape (http://www.inkscape.org/) -->

<svg
   width="500"
   height="100"
   viewBox="0 0 500 100"
   version="1.1"
   id="svg1"
   xml:space="preserve"
   inkscape:version="1.3.2 (091e20e, 2023-11-25, custom)"
   sodipodi:docname="k_kogemus.svg"
   xmlns:inkscape="http://www.inkscape.org/namespaces/inkscape"
   xmlns:sodipodi="http://sodipodi.sourceforge.net/DTD/sodipodi-0.dtd"
   xmlns="http://www.w3.org/2000/svg"
   xmlns:svg="http://www.w3.org/2000/svg"><sodipodi:namedview
     id="namedview1"
     pagecolor="#ffffff"
     bordercolor="#000000"
     borderopacity="0.25"
     inkscape:showpageshadow="2"
     inkscape:pageopacity="0.0"
     inkscape:pagecheckerboard="0"
     inkscape:deskcolor="#d1d1d1"
     inkscape:document-units="px"
     showgrid="true"
     inkscape:zoom="1.4142136"
     inkscape:cx="332.69374"
     inkscape:cy="16.617009"
     inkscape:window-width="1920"
     inkscape:window-height="1017"
     inkscape:window-x="1912"
     inkscape:window-y="68"
     inkscape:window-maximized="1"
     inkscape:current-layer="layer3"><inkscape:grid
       visible="true"
       id="grid166"
       units="px"
       originx="0"
       originy="0"
       spacingx="1"
       spacingy="1"
       empcolor="#0099e5"
       empopacity="0.30196078"
       color="#0099e5"
       opacity="0.14901961"
       empspacing="5"
       dotted="false"
       gridanglex="30"
       gridanglez="30" /></sodipodi:namedview><defs
     id="defs1"><rect
       x="627"
       y="56.568542"
       width="2581.7092"
       height="326.92006"
       id="rect4" /><rect
       x="560"
       y="40"
       width="2053.4666"
       height="421"
       id="rect3" /><rect
       x="520"
       y="40"
       width="2040"
       height="400"
       id="rect2" /><rect
       x="560"
       y="80"
       width="2480"
       height="400"
       id="rect1" /><inkscape:perspective
       sodipodi:type="inkscape:persp3d"
       inkscape:vp_x="-12.571988 : -53.39504 : 1"
       inkscape:vp_y="0 : 999.99999 : 0"
       inkscape:vp_z="499.42802 : -68.98577 : 1"
       inkscape:persp3d-origin="243.42798 : -138.72836 : 1"
       id="perspective81" /></defs><g
     inkscape:groupmode="layer"
     id="layer3"
     inkscape:label="Layer 3"
     style="display:inline"
     transform="matrix(0.18721944,0,0,0.18721944,-4.3939798,-5.1024712)"><g
       style="fill:none"
       id="g6"
       transform="matrix(8.9906833,0,0,8.9906833,23.634142,29.666159)"><path
         d="M 0,0 H 300 V 59 H 61.6725 Z"
         fill="#ff0000"
         id="path1-8" /></g><g
       style="display:inline;fill:none"
       id="g5"
       transform="matrix(8.9906833,0,0,8.9906833,506.96615,220.95543)"><path
         d="M 10.08,13.288 V 16 H 0.6 V 13.288 L 5.88,7.552 C 6.328,7.072 6.64,6.632 6.816,6.232 7.008,5.832 7.104,5.408 7.104,4.96 7.104,4.432 6.952,4.024 6.648,3.736 6.36,3.448 5.928,3.304 5.352,3.304 4.744,3.304 3.976,3.368 3.048,3.496 2.136,3.608 1.56,3.704 1.32,3.784 V 1.264 C 1.944,1.088 2.656,0.952 3.456,0.855999 c 0.8,-0.096 1.6,-0.144 2.4,-0.144 1.312,0 2.328,0.344001 3.048,1.032001 0.72,0.672 1.08,1.616 1.08,2.832 0,0.8 -0.136,1.528 -0.408,2.184 C 9.304,7.4 8.848,8.064 8.208,8.752 l -4.2,4.536 z M 23.6413,8.44 c 0,2.864 -0.432,4.88 -1.296,6.048 -0.848,1.152 -2.368,1.728 -4.56,1.728 -1.376,0 -2.456,-0.168 -3.24,-0.504 -0.768,-0.336 -1.352,-0.872 -1.752,-1.608 -0.304,-0.576 -0.528,-1.312 -0.672,-2.208 -0.144,-0.912 -0.216,-2.064 -0.216,-3.456 0,-2.832 0.432,-4.824 1.296,-5.976 0.864,-1.168 2.392,-1.752001 4.584,-1.752001 1.376,0 2.448,0.168 3.216,0.504001 0.768,0.32 1.352,0.856 1.752,1.608 0.304,0.56 0.528,1.288 0.672,2.184 0.144,0.896 0.216,2.04 0.216,3.432 z m -2.904,0 c 0,-2.08 -0.192,-3.456 -0.576,-4.128 -0.368,-0.672 -1.16,-1.008 -2.376,-1.008 -1.184,0 -1.976,0.344 -2.376,1.032 -0.384,0.688 -0.576,2.056 -0.576,4.104 0,2.064 0.184,3.424 0.552,4.08 0.384,0.656 1.184,0.984 2.4,0.984 1.184,0 1.968,-0.336 2.352,-1.008 0.4,-0.688 0.6,-2.04 0.6,-4.056 z m 10.39,7.56 h -3.024 l 5.76,-15.048001 h 2.976 L 42.5033,16 h -3.024 l -1.08,-3.072 h -6.216 z m 4.152,-12.288 c -0.176,0.608 -0.376,1.248 -0.6,1.92 -0.208,0.672 -0.408,1.296 -0.6,1.872 l -1.056,3.048 h 4.536 L 36.5033,7.504 C 36.3273,6.992 36.1273,6.4 35.9033,5.728 35.6793,5.04 35.4713,4.368 35.2793,3.712 Z M 45.7054,16 h -3.024 l 5.76,-15.048001 h 2.976 L 57.0814,16 h -3.024 l -1.08,-3.072 h -6.216 z m 4.152,-12.288 c -0.176,0.608 -0.376,1.248 -0.6,1.92 -0.208,0.672 -0.408,1.296 -0.6,1.872 l -1.056,3.048 h 4.536 l -1.056,-3.048 c -0.176,-0.512 -0.376,-1.104 -0.6,-1.776 -0.224,-0.688 -0.432,-1.36 -0.624,-2.016 z m 14.4832,6.312 -3.336,-0.792 c -1.104,-0.256 -1.88,-0.672 -2.328,-1.248 -0.448,-0.592 -0.672,-1.432 -0.672,-2.52 0,-1.632 0.448,-2.832 1.344,-3.6 0.896,-0.768 2.288,-1.152001 4.176,-1.152001 0.784,0 1.48,0.04 2.088,0.12 0.624,0.064 1.2,0.168001 1.728,0.312001 v 2.592 c -0.912,-0.176 -1.64,-0.288 -2.184,-0.336 -0.544,-0.064 -1.104,-0.096 -1.68,-0.096 -0.96,0 -1.64,0.152 -2.04,0.456 -0.4,0.288 -0.6,0.792 -0.6,1.512 0,0.416 0.08,0.736 0.24,0.96 0.176,0.208 0.464,0.36 0.864,0.456 l 3.24,0.768 c 0.752,0.176 1.312,0.36 1.68,0.552 0.368,0.176 0.672,0.4 0.912,0.672 0.24,0.304 0.416,0.68 0.528,1.128 0.128,0.448 0.192,1 0.192,1.656 0,1.696 -0.448,2.912 -1.344,3.648 -0.896,0.736 -2.288,1.104 -4.176,1.104 -0.976,0 -1.92,-0.064 -2.832,-0.192 -0.896,-0.128 -1.6,-0.288 -2.112,-0.48 v -2.712 c 0.688,0.208 1.464,0.376 2.328,0.504 0.88,0.112 1.752,0.168 2.616,0.168 0.944,0 1.6,-0.128 1.968,-0.384 0.384,-0.272 0.576,-0.792 0.576,-1.56 0,-0.48 -0.08,-0.824 -0.24,-1.032 -0.144,-0.224 -0.456,-0.392 -0.936,-0.504 z M 81.0308,0.951999 V 3.544 h -4.56 V 16 h -2.88 V 3.544 h -4.536 V 0.951999 Z M 82.4085,16 h -3.024 l 5.76,-15.048001 h 2.976 L 93.7845,16 h -3.024 l -1.08,-3.072 h -6.216 z m 4.152,-12.288 c -0.176,0.608 -0.376,1.248 -0.6,1.92 -0.208,0.672 -0.408,1.296 -0.6,1.872 l -1.056,3.048 h 4.536 L 87.7845,7.504 C 87.6085,6.992 87.4085,6.4 87.1845,5.728 86.9605,5.04 86.7525,4.368 86.5605,3.712 Z M 104.164,0.951999 V 3.544 H 99.6036 V 16 h -2.88 V 3.544 h -4.536 V 0.951999 Z M 116.21,8.272 l 6,7.728 h -3.672 l -4.8,-6.456 H 112.25 V 16 h -2.88 V 0.951999 h 2.88 V 7.168 h 1.488 l 4.776,-6.216001 h 3.48 z m 19.532,0.168 c 0,2.736 -0.544,4.72 -1.632,5.952 -1.072,1.216 -2.824,1.824 -5.256,1.824 -2.592,0 -4.392,-0.568 -5.4,-1.704 -1.008,-1.152 -1.512,-3.176 -1.512,-6.072 0,-2.72 0.544,-4.688 1.632,-5.904 1.088,-1.216 2.848,-1.824001 5.28,-1.824001 2.576,0 4.368,0.576001 5.376,1.728001 1.008,1.136 1.512,3.136 1.512,6 z m -10.296,3.792 c 0.256,0.464 0.632,0.792 1.128,0.984 0.496,0.192 1.256,0.288 2.28,0.288 1.584,0 2.64,-0.352 3.168,-1.056 0.528,-0.72 0.792,-2.056 0.792,-4.008 0,-0.944 -0.048,-1.72 -0.144,-2.328 -0.08,-0.608 -0.224,-1.104 -0.432,-1.488 -0.256,-0.48 -0.632,-0.816 -1.128,-1.008 -0.496,-0.208 -1.248,-0.312 -2.256,-0.312 -1.6,0 -2.664,0.36 -3.192,1.08 -0.528,0.72 -0.792,2.072 -0.792,4.056 0,0.944 0.048,1.72 0.144,2.328 0.096,0.608 0.24,1.096 0.432,1.464 z m 21.659,-2.112 h -3.264 v -2.4 h 5.952 v 7.584 c -0.448,0.208 -1.248,0.416 -2.4,0.624 -1.152,0.192 -2.2,0.288 -3.144,0.288 -2.544,0 -4.312,-0.592 -5.304,-1.776 -0.976,-1.184 -1.464,-3.176 -1.464,-5.976 0,-2.672 0.576,-4.632 1.728,-5.88 1.168,-1.248 3.008,-1.872001 5.52,-1.872001 0.944,0 1.784,0.024001 2.52,0.072001 0.752,0.032 1.328,0.087999 1.728,0.167999 V 3.472 c -0.576,-0.048 -1.24,-0.088 -1.992,-0.12 -0.752,-0.032 -1.504,-0.048 -2.256,-0.048 -1.648,0 -2.776,0.376 -3.384,1.128 -0.592,0.752 -0.888,2.096 -0.888,4.032 0,0.928 0.048,1.696 0.144,2.304 0.112,0.608 0.272,1.104 0.48,1.488 0.272,0.48 0.656,0.824 1.152,1.032 0.512,0.208 1.264,0.312 2.256,0.312 0.336,0 0.728,-0.024 1.176,-0.072 0.448,-0.048 0.928,-0.112 1.44,-0.192 z m 15.214,3.168 V 16 H 152.143 V 0.951999 h 9.96 V 3.544 h -7.08 v 3.552 h 6.192 v 2.472 h -6.192 v 3.72 z M 179.111,0.951999 V 16 h -2.712 V 5.56 l -3.432,7.488 h -2.376 L 167.183,5.536 V 16 h -2.712 V 0.951999 h 3.552 L 171.839,9.52 175.679,0.951999 Z M 191.459,9.832 V 0.951999 h 2.88 V 9.832 c 0,2.16 -0.512,3.768 -1.536,4.824 -1.024,1.04 -2.592,1.56 -4.704,1.56 -2.16,0 -3.736,-0.504 -4.728,-1.512 -0.992,-1.008 -1.488,-2.632 -1.488,-4.872 V 0.951999 h 2.88 V 9.832 c 0,1.408 0.24,2.376 0.72,2.904 0.48,0.512 1.352,0.768 2.616,0.768 1.28,0 2.16,-0.264 2.64,-0.792 0.48,-0.528 0.72,-1.488 0.72,-2.88 z m 11.397,0.192 -3.336,-0.792 c -1.104,-0.256 -1.88,-0.672 -2.328,-1.248 -0.448,-0.592 -0.672,-1.432 -0.672,-2.52 0,-1.632 0.448,-2.832 1.344,-3.6 0.896,-0.768 2.288,-1.152001 4.176,-1.152001 0.784,0 1.48,0.04 2.088,0.12 0.624,0.064 1.2,0.168001 1.728,0.312001 v 2.592 c -0.912,-0.176 -1.64,-0.288 -2.184,-0.336 -0.544,-0.064 -1.104,-0.096 -1.68,-0.096 -0.96,0 -1.64,0.152 -2.04,0.456 -0.4,0.288 -0.6,0.792 -0.6,1.512 0,0.416 0.08,0.736 0.24,0.96 0.176,0.208 0.464,0.36 0.864,0.456 l 3.24,0.768 c 0.752,0.176 1.312,0.36 1.68,0.552 0.368,0.176 0.672,0.4 0.912,0.672 0.24,0.304 0.416,0.68 0.528,1.128 0.128,0.448 0.192,1 0.192,1.656 0,1.696 -0.448,2.912 -1.344,3.648 -0.896,0.736 -2.288,1.104 -4.176,1.104 -0.976,0 -1.92,-0.064 -2.832,-0.192 -0.896,-0.128 -1.6,-0.288 -2.112,-0.48 v -2.712 c 0.688,0.208 1.464,0.376 2.328,0.504 0.88,0.112 1.752,0.168 2.616,0.168 0.944,0 1.6,-0.128 1.968,-0.384 0.384,-0.272 0.576,-0.792 0.576,-1.56 0,-0.48 -0.08,-0.824 -0.24,-1.032 -0.144,-0.224 -0.456,-0.392 -0.936,-0.504 z m 16.69,-9.072001 V 3.544 h -4.56 V 16 h -2.88 V 3.544 H 207.57 V 0.951999 Z m 1.568,0 h 3.168 L 223.922,11.512 h -2.448 z M 224.138,13.408 V 16 h -2.88 v -2.592 z"
         fill="#ffffff"
         id="path1" /></g></g></svg>
