<?xml version="1.0" encoding="UTF-8" standalone="no"?>
<!-- Created with Inkscape (http://www.inkscape.org/) -->

<svg
   width="500"
   height="100"
   viewBox="0 0 500 100"
   version="1.1"
   id="svg1"
   xml:space="preserve"
   inkscape:version="1.4.3 (0d15f75, 2025-12-25)"
   sodipodi:docname="k_logo_tekst.svg"
   xmlns:inkscape="http://www.inkscape.org/namespaces/inkscape"
   xmlns:sodipodi="http://sodipodi.sourceforge.net/DTD/sodipodi-0.dtd"
   xmlns="http://www.w3.org/2000/svg"
   xmlns:svg="http://www.w3.org/2000/svg"><sodipodi:namedview
     id="namedview1"
     pagecolor="#ffffff"
     bordercolor="#000000"
     borderopacity="0.25"
     inkscape:showpageshadow="2"
     inkscape:pageopacity="0.0"
     inkscape:pagecheckerboard="0"
     inkscape:deskcolor="#d1d1d1"
     inkscape:document-units="px"
     showgrid="true"
     inkscape:zoom="2.0000001"
     inkscape:cx="313.74998"
     inkscape:cy="39.749998"
     inkscape:window-width="1920"
     inkscape:window-height="1017"
     inkscape:window-x="-8"
     inkscape:window-y="-8"
     inkscape:window-maximized="1"
     inkscape:current-layer="layer3"><inkscape:grid
       visible="true"
       id="grid166"
       units="px"
       originx="0"
       originy="0"
       spacingx="1"
       spacingy="1"
       empcolor="#0099e5"
       empopacity="0.30196078"
       color="#0099e5"
       opacity="0.14901961"
       empspacing="5"
       dotted="false"
       gridanglex="30"
       gridanglez="30" /></sodipodi:namedview><defs
     id="defs1"><rect
       x="627"
       y="56.568542"
       width="2413"
       height="463.43146"
       id="rect4" /><rect
       x="560"
       y="40"
       width="2053.4666"
       height="421"
       id="rect3" /><rect
       x="520"
       y="40"
       width="2040"
       height="400"
       id="rect2" /><rect
       x="560"
       y="80"
       width="2480"
       height="400"
       id="rect1" /><inkscape:perspective
       sodipodi:type="inkscape:persp3d"
       inkscape:vp_x="-12.571988 : -53.39504 : 1"
       inkscape:vp_y="0 : 999.99999 : 0"
       inkscape:vp_z="499.42802 : -68.98577 : 1"
       inkscape:persp3d-origin="243.42798 : -138.72836 : 1"
       id="perspective81" /></defs><g
     inkscape:groupmode="layer"
     id="layer3"
     inkscape:label="Layer 3"
     style="display:inline"
     transform="matrix(0.18721944,0,0,0.18721944,-4.3939798,-5.1024712)"><path
       style="display:inline;fill:#ff0000;fill-rule:evenodd;stroke-width:0.763465;stroke-linejoin:round;stroke-opacity:0.825726"
       d="M 1100,-220 860,260"
       id="path160" /><path
       style="fill:#ff0000;fill-rule:evenodd;stroke-width:0.763465;stroke-linejoin:round;stroke-opacity:0.825726"
       d="m 283,306 v 155 l 148,-76 v -47 l -77,36 z"
       id="path161" /><path
       style="fill:#ff0000;fill-rule:evenodd;stroke-width:0.763465;stroke-linejoin:round;stroke-opacity:0.825726"
       d="M 274,306 V 461 L 98,345 v -62 l 115,81 z"
       id="path162"
       sodipodi:nodetypes="cccccc" /><path
       style="fill:#ff0000;fill-rule:evenodd;stroke-width:0.763465;stroke-linejoin:round;stroke-opacity:0.825726"
       d="M 500,297 354,365 283,297.02773 433,237 Z"
       id="path163"
       sodipodi:nodetypes="ccccc" /><path
       style="display:inline;fill:#ff0000;fill-rule:evenodd;stroke-width:0.763465;stroke-linejoin:round;stroke-opacity:0.825726"
       d="M 274,138 112,187 56,154.34048 220,110 Z"
       id="path163-0"
       sodipodi:nodetypes="ccccc" /><path
       style="fill:#ff0000;fill-rule:evenodd;stroke-width:0.763465;stroke-linejoin:round;stroke-opacity:0.825726"
       d="M 274,297 213,355 56,245 112,196 269,294 Z"
       id="path164"
       sodipodi:nodetypes="cccccc" /><path
       style="display:inline;fill:#ff0000;fill-rule:evenodd;stroke-width:0.763465;stroke-linejoin:round;stroke-opacity:0.825726"
       d="m 500,205 -67,23 -150,-90 71,-14.5 z"
       id="path164-4"
       sodipodi:nodetypes="ccccc" /><path
       style="display:inline;fill:#ff0000;fill-rule:evenodd;stroke-width:0.763465;stroke-linejoin:round;stroke-opacity:0.825726"
       d="M 640,240 627,170.25"
       id="path166" /><g
       id="text3"
       style="font-size:266.667px;font-family:Blinker;-inkscape-font-specification:Blinker;white-space:pre;fill:#ff0000;fill-rule:evenodd;stroke:#000000;stroke-width:0;stroke-opacity:0.825726"
       transform="translate(-84.600021,79.098223)"
       aria-label="kolimisteenused.ee"><path
         style="fill:#000000"
         d="m 666.46671,246.16859 v 57.06674 H 644.60002 V 125.90178 h 21.86669 v 101.33345 h 15.73336 l 46.13339,-55.7334 h 26.40003 l -54.66673,64.00008 57.3334,67.73342 h -27.4667 l -46.93339,-57.06674 z m 217.86698,-9.06668 q 0,37.33338 -13.86669,52.80007 -13.60001,15.46668 -46.93339,15.46668 -34.40004,0 -47.73339,-14.93335 -13.33335,-14.93335 -13.33335,-53.3334 0,-37.60004 13.60002,-52.80006 13.86668,-15.46669 47.46672,-15.46669 34.40004,0 47.46673,14.93335 13.33335,14.93336 13.33335,53.3334 z m -100.00013,-0.26666 q 0,29.33337 7.73335,38.93338 7.73334,9.33334 31.4667,9.33334 22.93336,0 30.93337,-9.86668 8.00001,-10.13334 8.00001,-38.40004 0,-29.33337 -7.73334,-38.66672 -7.46668,-9.60001 -31.20004,-9.60001 -23.20003,0 -31.20004,9.86668 -8.00001,9.86668 -8.00001,38.40005 z M 935.26689,125.90178 v 177.33355 h -21.8667 V 125.90178 Z m 57.86692,22.66669 h -23.46669 v -22.66669 h 23.46669 z m -0.8,154.66686 h -21.86669 v -131.7335 h 21.86669 z m 57.06689,0 h -21.8667 v -131.7335 h 20.0001 l 1.0666,10.13335 h 0.8 q 11.7334,-6.66668 21.3334,-9.60001 9.6,-3.20001 19.2,-3.20001 11.2,0 19.2,3.46667 8.0001,3.46667 12.5334,10.40002 h 0.8 q 10.6667,-6.66668 22.4,-10.13335 12,-3.73334 24,-3.73334 18.9334,0 28.5334,10.13335 9.8667,9.86668 9.8667,29.33337 v 94.93345 h -21.8667 v -92.26678 q 0,-11.46668 -6.1333,-16.80002 -6.1334,-5.60001 -19.4667,-5.60001 -7.4667,0 -15.7334,2.4 -8.2667,2.13334 -16.5333,6.40001 0.5333,2.66667 0.5333,5.33334 0.2667,2.66667 0.2667,5.60001 v 94.93345 h -21.8667 v -92.26678 q 0,-11.46668 -6.1334,-16.80002 -6.1333,-5.60001 -19.4667,-5.60001 -6.6666,0 -14.1333,2.4 -7.4667,2.13334 -17.3334,7.46668 z m 214.667,-154.66686 h -23.4667 v -22.66669 h 23.4667 z m -0.8,154.66686 h -21.8667 v -131.7335 h 21.8667 z m 80.5336,-114.66681 q -17.0667,0 -23.7333,4.00001 -6.4,4 -6.4,16.26668 0,6.40001 2.9333,9.86668 3.2,3.2 9.8667,4.26667 l 33.8667,5.06668 q 16,2.4 22.4,10.13334 6.4,7.46668 6.4,23.73336 0,22.93336 -10.9333,33.33338 -10.9334,10.13334 -36.2667,10.13334 -15.2001,0 -28.2667,-1.6 -13.0667,-1.6 -21.6001,-4.26667 v -20.53336 q 8.5334,2.66667 20.8001,4.53334 12.5333,1.6 25.6,1.6 16.5333,0 22.6667,-4.8 6.1333,-4.80001 6.1333,-17.06669 0,-7.73334 -3.4666,-11.20002 -3.4667,-3.73333 -12.5334,-5.06667 l -33.8667,-5.06667 q -12.8,-1.86667 -19.2,-9.86668 -6.1334,-8.00001 -6.4,-23.20003 0,-20.80002 12.2666,-30.40004 12.5334,-9.60001 38.4001,-9.60001 10.6667,0 19.2,0.53334 8.8,0.53333 18.4,2.13333 v 19.46669 q -6.9333,-1.06666 -16.2666,-1.6 -9.3334,-0.8 -20.0001,-0.8 z m 147.7335,94.13345 v 18.40002 q -4.2666,1.86667 -11.7333,2.93334 -7.2,1.33333 -13.8667,1.33333 -24,0 -34.4,-10.66668 -10.1334,-10.66668 -10.1334,-36.80004 v -67.73342 h -19.7333 v -18.66669 h 20 l 3.4666,-32.00004 h 18.1334 v 32.00004 h 46.9334 v 18.66669 h -46.9334 v 66.93342 q 0,16.26668 5.8667,22.13336 6.1333,5.86667 21.3333,5.86667 4.8,0 10.9334,-0.8 6.4,-0.8 10.1333,-1.6 z m 118.9334,-5.06667 v 18.40002 q -6.9333,3.73334 -20.5333,6.66667 -13.3334,2.66667 -27.2001,2.66667 -30.9333,0 -44.2667,-16.00002 -13.3333,-16.00002 -13.3333,-52.80006 0,-35.46671 13.8667,-51.46673 13.8666,-16.26669 44.2667,-16.26669 28.2667,0 40.5334,12.80002 12.2666,12.53335 12.2666,42.13338 0,5.33334 -0.2666,9.86668 -0.2667,4.53334 -1.0667,10.93335 h -87.4668 q 0.2667,21.86669 8.8,31.20004 8.8,9.33334 30.1334,9.33334 11.4667,0 24,-2.13333 12.5334,-2.13334 20.2667,-5.33334 z m -14.4,-56.80007 q -0.2667,-17.60002 -7.7333,-24.80003 -7.4667,-7.46668 -25.0667,-7.46668 -19.7334,0 -28.0001,8.53334 -8,8.26668 -8,29.33337 h 68.5334 q 0,-0.53333 0,-2.4 0.2667,-2.13334 0.2667,-3.2 z m 147.2,56.80007 v 18.40002 q -6.9333,3.73334 -20.5333,6.66667 -13.3334,2.66667 -27.2001,2.66667 -30.9333,0 -44.2667,-16.00002 -13.3333,-16.00002 -13.3333,-52.80006 0,-35.46671 13.8666,-51.46673 13.8667,-16.26669 44.2668,-16.26669 28.2667,0 40.5333,12.80002 12.2667,12.53335 12.2667,42.13338 0,5.33334 -0.2666,9.86668 -0.2667,4.53334 -1.0667,10.93335 h -87.4668 q 0.2667,21.86669 8.8,31.20004 8.8,9.33334 30.1334,9.33334 11.4667,0 24,-2.13333 12.5334,-2.13334 20.2667,-5.33334 z m -14.4,-56.80007 q -0.2667,-17.60002 -7.7333,-24.80003 -7.4667,-7.46668 -25.0667,-7.46668 -19.7334,0 -28.0001,8.53334 -8,8.26668 -8,29.33337 h 68.5334 q 0,-0.53333 0,-2.4 0.2667,-2.13334 0.2667,-3.2 z m 70.1332,82.4001 h -21.8667 v -131.7335 h 18.9333 l 1.0667,12.80002 h 0.8 q 10.6667,-8.00001 22.1334,-11.73335 11.7333,-3.73334 26.1333,-3.73334 21.8667,0 33.0667,10.93335 11.4667,10.93335 11.4667,32.26671 v 91.20011 h -21.8667 v -88.53344 q 0,-13.33335 -7.4666,-19.73336 -7.4667,-6.40001 -22.9334,-6.40001 -9.6,0 -19.7334,3.2 -9.8666,2.93334 -19.7333,8.80002 z m 168.5338,2.13333 q -21.8667,0 -32.8001,-10.93334 -10.9333,-10.93335 -10.9333,-32.80004 v -90.13345 h 21.8667 v 87.46678 q 0,13.60001 6.9333,19.73335 6.9334,6.13334 21.8667,6.13334 9.0667,0 18.1334,-2.13333 9.3333,-2.4 18.6667,-7.20001 V 171.50183 h 21.8667 v 131.7335 h -20.0001 l -1.0666,-10.93335 h -0.5334 q -13.8667,7.20001 -24,10.13335 -10.1333,2.93333 -20,2.93333 z m 146.1334,-116.80014 q -17.0666,0 -23.7333,4.00001 -6.4,4 -6.4,16.26668 0,6.40001 2.9333,9.86668 3.2,3.2 9.8667,4.26667 l 33.8667,5.06668 q 16,2.4 22.4,10.13334 6.4,7.46668 6.4,23.73336 0,22.93336 -10.9333,33.33338 -10.9334,10.13334 -36.2667,10.13334 -15.2,0 -28.2667,-1.6 -13.0667,-1.6 -21.6001,-4.26667 v -20.53336 q 8.5334,2.66667 20.8001,4.53334 12.5333,1.6 25.6,1.6 16.5334,0 22.6667,-4.8 6.1333,-4.80001 6.1333,-17.06669 0,-7.73334 -3.4666,-11.20002 -3.4667,-3.73333 -12.5334,-5.06667 l -33.8667,-5.06667 q -12.8,-1.86667 -19.2,-9.86668 -6.1334,-8.00001 -6.4,-23.20003 0,-20.80002 12.2667,-30.40004 12.5333,-9.60001 38.4,-9.60001 10.6667,0 19.2,0.53334 8.8,0.53333 18.4001,2.13333 v 19.46669 q -6.9334,-1.06666 -16.2667,-1.6 -9.3334,-0.8 -20.0001,-0.8 z m 170.6668,89.06678 v 18.40002 q -6.9334,3.73334 -20.5334,6.66667 -13.3334,2.66667 -27.2,2.66667 -30.9334,0 -44.2668,-16.00002 -13.3333,-16.00002 -13.3333,-52.80006 0,-35.46671 13.8667,-51.46673 13.8667,-16.26669 44.2667,-16.26669 28.2667,0 40.5334,12.80002 12.2667,12.53335 12.2667,42.13338 0,5.33334 -0.2667,9.86668 -0.2667,4.53334 -1.0667,10.93335 h -87.4667 q 0.2666,21.86669 8.8,31.20004 8.8,9.33334 30.1333,9.33334 11.4667,0 24.0001,-2.13333 12.5333,-2.13334 20.2667,-5.33334 z m -14.4001,-56.80007 q -0.2666,-17.60002 -7.7333,-24.80003 -7.4667,-7.46668 -25.0667,-7.46668 -19.7334,0 -28,8.53334 -8,8.26668 -8,29.33337 h 68.5334 q 0,-0.53333 0,-2.4 0.2666,-2.13334 0.2666,-3.2 z m 135.4666,-94.93345 h 21.8667 v 177.33355 h -18.9333 l -1.6,-12.26668 h -0.5334 q -7.7333,7.2 -18.9333,10.93334 -10.9334,3.46667 -25.3334,3.46667 -26.9334,0 -38.6667,-16.00002 -11.4667,-16.00002 -11.4667,-52.26673 0,-36.26671 14.1334,-52.26673 14.1333,-16.00002 47.2,-16.00002 9.3334,0 17.3334,1.60001 8.2667,1.33333 14.9333,4 z m -29.6,62.66674 q -24.8,0 -33.6,10.40001 -8.5334,10.40002 -8.5334,38.13338 0,26.93337 7.4667,37.60005 7.7333,10.40001 28.5334,10.40001 9.8666,0 18.9333,-2.4 9.0667,-2.66667 16.8,-7.73334 v -81.06677 q -6.4,-2.66667 -13.6,-4 -7.2,-1.33334 -16,-1.33334 z"
         id="path1" /><path
         d="m 2479.0021,303.23533 h -21.8666 v -22.13336 h 21.8666 z m 128.8001,-25.60003 v 18.40002 q -6.9334,3.73334 -20.5334,6.66667 -13.3334,2.66667 -27.2,2.66667 -30.9334,0 -44.2668,-16.00002 -13.3333,-16.00002 -13.3333,-52.80006 0,-35.46671 13.8667,-51.46673 13.8667,-16.26669 44.2667,-16.26669 28.2667,0 40.5334,12.80002 12.2667,12.53335 12.2667,42.13338 0,5.33334 -0.2667,9.86668 -0.2667,4.53334 -1.0667,10.93335 h -87.4667 q 0.2666,21.86669 8.8,31.20004 8.8,9.33334 30.1333,9.33334 11.4667,0 24.0001,-2.13333 12.5333,-2.13334 20.2667,-5.33334 z m -14.4001,-56.80007 q -0.2666,-17.60002 -7.7333,-24.80003 -7.4667,-7.46668 -25.0667,-7.46668 -19.7334,0 -28,8.53334 -8,8.26668 -8,29.33337 h 68.5334 q 0,-0.53333 0,-2.4 0.2666,-2.13334 0.2666,-3.2 z m 147.2001,56.80007 v 18.40002 q -6.9333,3.73334 -20.5334,6.66667 -13.3333,2.66667 -27.2,2.66667 -30.9334,0 -44.2667,-16.00002 -13.3334,-16.00002 -13.3334,-52.80006 0,-35.46671 13.8667,-51.46673 13.8667,-16.26669 44.2667,-16.26669 28.2667,0 40.5334,12.80002 12.2667,12.53335 12.2667,42.13338 0,5.33334 -0.2667,9.86668 -0.2666,4.53334 -1.0666,10.93335 h -87.4668 q 0.2667,21.86669 8.8,31.20004 8.8,9.33334 30.1334,9.33334 11.4667,0 24,-2.13333 12.5334,-2.13334 20.2667,-5.33334 z m -14.4,-56.80007 q -0.2667,-17.60002 -7.7334,-24.80003 -7.4666,-7.46668 -25.0667,-7.46668 -19.7333,0 -28,8.53334 -8,8.26668 -8,29.33337 h 68.5334 q 0,-0.53333 0,-2.4 0.2667,-2.13334 0.2667,-3.2 z"
         id="path2" /></g></g></svg>
